<svg width="24" height="24" xmlns="http://www.w3.org/2000/svg">

 <g>
  <title>background</title>
  <rect fill="none" id="canvas_background" height="402" width="582" y="-1" x="-1"/>
 </g>
 <g>
  <title>Layer 1</title>
  <path fill="#ffffff" id="svg_1" d="m18.003,12.333l-3.018,0c0.289,-1.977 2.902,-1.715 3.018,0zm-9.742,0.667l-2.261,0l0,2.01l2.228,0c2.036,0 1.911,-2.01 0.033,-2.01zm-0.08,-4l-2.181,0l0,2l2.389,0c1.673,0 1.938,-2 -0.208,-2zm15.819,-9l0,24l-24,0l0,-24l24,0zm-10,8l5,0l0,-1l-5,0l0,1zm-3.552,3.618c1.907,-0.974 1.837,-4.55 -1.813,-4.604l-4.635,0l0,9.978l4.311,0c4.522,0 4.445,-4.534 2.137,-5.374zm9.487,0.602c-0.274,-1.763 -1.529,-2.95 -3.583,-2.95c-2.095,0 -3.352,1.34 -3.352,3.947c0,2.631 1.368,3.783 3.417,3.783c2.048,0 3.106,-1.135 3.4,-2l-2.112,0c-0.737,0.855 -2.893,0.521 -2.767,-1.353l5.059,0c0.01,-0.634 -0.011,-1.089 -0.062,-1.427z"/>
 </g>
</svg>