<svg width="256" height="295" xmlns="http://www.w3.org/2000/svg" preserveAspectRatio="xMinYMin meet">

 <g>
  <title>background</title>
  <rect fill="none" id="canvas_background" height="402" width="582" y="-1" x="-1"/>
 </g>
 <g>
  <title>Layer 1</title>
  <g id="svg_1" fill="#205081">
   <path fill="#64dcdc" id="svg_2" d="m128,0c-70.268,0 -127.988,18.822 -127.988,42.663c0,6.274 15.057,95.364 21.331,130.498c2.51,16.312 43.918,38.898 106.657,38.898c62.74,0 102.893,-22.586 106.657,-38.898c6.274,-35.134 21.331,-124.224 21.331,-130.498c-1.254,-23.841 -57.72,-42.663 -127.988,-42.663zm0,183.199c-22.586,0 -40.153,-17.567 -40.153,-40.153s17.567,-40.153 40.153,-40.153s40.153,17.567 40.153,40.153c0,21.331 -17.567,40.153 -40.153,40.153zm0,-127.988c-45.172,0 -81.561,-7.53 -81.561,-17.567c0,-10.039 36.389,-17.567 81.561,-17.567c45.172,0 81.561,7.528 81.561,17.567c0,10.038 -36.389,17.567 -81.561,17.567z"/>
   <path fill="#64dcdc" id="svg_3" d="m220.608,207.04c-2.51,0 -3.764,1.255 -3.764,1.255s-31.37,25.096 -87.835,25.096c-56.466,0 -87.835,-25.096 -87.835,-25.096s-2.51,-1.255 -3.765,-1.255c-2.51,0 -5.019,1.255 -5.019,5.02l0,1.254c5.02,26.35 8.784,45.172 8.784,47.682c3.764,18.822 41.408,33.88 86.58,33.88s82.816,-15.058 86.58,-33.88c0,-2.51 3.765,-21.332 8.784,-47.682l0,-1.255c1.255,-2.51 0,-5.019 -2.51,-5.019z"/>
   <circle fill="#64dcdc" id="svg_4" r="20.077" cy="141.791" cx="128"/>
  </g>
 </g>
</svg>